<?xml version="1.0" encoding="utf-8"?>
<svg version="1.1" xmlns="http://www.w3.org/2000/svg" xmlns:xlink="http://www.w3.org/1999/xlink" x="0px"
	 y="0px" viewBox="0 0 1456 180" style="enable-background:new 0 0 1456 180;" xml:space="preserve">
<style type="text/css">
	.st0{clip-path:url(#SVGID_00000170996059435295535680000016792432904787930500_);}
	.st1{fill:#B3B3B3;}
	.st2{clip-path:url(#SVGID_00000012432916054161940490000015651310293732278968_);}
	.st3{fill:#F5F5F5;stroke:#999999;stroke-width:4;stroke-miterlimit:10;}
	
		.st4{clip-path:url(#SVGID_00000108276858118541690500000000120990736325959100_);fill:#F5F5F5;stroke:#999999;stroke-width:4;stroke-miterlimit:10;}
	
		.st5{clip-path:url(#SVGID_00000142875004572348555990000000810220739823814329_);fill:#F5F5F5;stroke:#999999;stroke-width:4;stroke-miterlimit:10;}
	.st6{clip-path:url(#SVGID_00000107590124549906939060000018367119865051837880_);fill:#999999;}
	.st7{clip-path:url(#SVGID_00000018954972866267935640000008411911699040033201_);fill:#999999;}
	
		.st8{clip-path:url(#SVGID_00000031209548575626932610000000625605357561940892_);fill:#FDD4B5;stroke:#999999;stroke-width:3;stroke-linecap:round;stroke-linejoin:round;stroke-miterlimit:10;}
	
		.st9{clip-path:url(#SVGID_00000106107790529344532600000017970144316315720630_);fill:none;stroke:#999999;stroke-width:3;stroke-linecap:round;stroke-miterlimit:10;}
	
		.st10{clip-path:url(#SVGID_00000046307506601088448520000008062699174996266937_);fill:none;stroke:#999999;stroke-width:3;stroke-linecap:round;stroke-miterlimit:10;}
	.st11{opacity:0.5;}
	.st12{fill:#FFFFFF;}
	.st13{enable-background:new    ;}
	.st14{fill:#808080;}
</style>
<g>
	<g>
		<defs>
			<rect id="SVGID_1_" width="1456" height="180"/>
		</defs>
		<clipPath id="SVGID_00000102504072585020751130000009105070433670550912_">
			<use xlink:href="#SVGID_1_"  style="overflow:visible;"/>
		</clipPath>
		<g style="clip-path:url(#SVGID_00000102504072585020751130000009105070433670550912_);">
			<rect y="-0.9" class="st1" width="1456" height="180.9"/>
		</g>
	</g>
	<g>
		<defs>
			<rect id="SVGID_00000093150847782027124310000000714267117891701177_" width="1456" height="180"/>
		</defs>
		<clipPath id="SVGID_00000051357002933920494170000014997550163587041173_">
			<use xlink:href="#SVGID_00000093150847782027124310000000714267117891701177_"  style="overflow:visible;"/>
		</clipPath>
		<g style="clip-path:url(#SVGID_00000051357002933920494170000014997550163587041173_);">
			<path class="st3" d="M1007.5,66.6c8.1-4.7,5.5-4.2,22.5-8.6s33.4,9.6,32,27.1s-9.8,29.5-29,30.4c-19.2,0.9-30.3-7-41.9-5.5
				c-11.6,1.5-16.2-16-5.1-26.6C997,72.9,999.4,71.3,1007.5,66.6z"/>
			<path class="st3" d="M986.4,105.7c0,0,7.3-14,20.8-18s27.1-6.8,33,2.9c5.9,9.7,5.3,21.8,5.3,21.8"/>
			<path class="st3" d="M991.1,110.1c0.1-1.5,17.9-17.2,31.3-15s20.1,13.3,19.9,18"/>
			<path class="st3" d="M993.2,109.8c5.5-4.5,12.1-8.3,19.2-9.3c7.9-1.1,15.6,1.7,19.5,5.1c2.4,2.1,5.8,5.4,6.6,8.8"/>
		</g>
	</g>
	<g>
		<defs>
			<rect id="SVGID_00000144305382384903738600000002527530778250871486_" width="1456" height="180"/>
		</defs>
		<clipPath id="SVGID_00000142898442727344108890000010744446880783326119_">
			<use xlink:href="#SVGID_00000144305382384903738600000002527530778250871486_"  style="overflow:visible;"/>
		</clipPath>
		
			<path style="clip-path:url(#SVGID_00000142898442727344108890000010744446880783326119_);fill:#F5F5F5;stroke:#999999;stroke-width:4;stroke-miterlimit:10;" d="
			M904.7,217.1c-2.8-10.8-3.1-22.1-3.5-33.3c-0.2-5.9-0.4-11.8-0.6-17.6c-0.7,0.9-1.4,1.9-2.1,2.8c-3.7,5.4-6.5,11.4-8.2,17.6
			c-1.8,6.8-3,16.2-4.2,23.2c-0.7,3.9-0.6,10.6-5.6,11.5c-3.1,0.5-5,0.1-6.8-2.5c-3.7-5-3.5-24.1-0.2-37.4
			c2.8-11.6,7-22.9,15.1-32.5c4.8-5.7,16-14,35.9-15.5c15.5-1.1,17.5,2.4,22.4,5.1c4.9,2.7,9.6,1.8,14.3,1
			c8.3-1.5,22.5-14.4,28.7-22.9c4.9-6.8,6-23.1,15.1-24.6c14.3-2.3,3.4,25.9,0.4,31.9c-6.2,12.7-11,20-16.8,26.1
			c-1.9,1.9-8.7,7.6-8.3,10.6s9,38.9,11.3,49.4"/>
	</g>
	<g>
		<defs>
			<rect id="SVGID_00000116932702284010182840000016006973414875939472_" width="1456" height="180"/>
		</defs>
		<clipPath id="SVGID_00000123426726437963081490000005253076717426266267_">
			<use xlink:href="#SVGID_00000116932702284010182840000016006973414875939472_"  style="overflow:visible;"/>
		</clipPath>
		
			<path style="clip-path:url(#SVGID_00000123426726437963081490000005253076717426266267_);fill:#F5F5F5;stroke:#999999;stroke-width:4;stroke-miterlimit:10;" d="
			M894.2,38.9c0,0,8.2-20.4,15-19.8s7.6,17.2,7.6,17.2l42.6,0.5c0,0,8.8-16.6,15.7-15.4c7,1.2,8,17.4,8,17.4s15.5,12.6,19.3,34.2
			c9.9,56.2-56.8,82.4-103.8,77.4c-0.3,0-0.6-0.1-0.9-0.1c-21.3-2.7-50.2-10.5-59.4-32.4c-11.5-27.2,12.9-51.6,22.3-58.6
			C870.1,52.1,894.2,38.9,894.2,38.9z"/>
	</g>
	<g>
		<defs>
			<rect id="SVGID_00000059306369693054142110000011521307490389827713_" width="1456" height="180"/>
		</defs>
		<clipPath id="SVGID_00000049907590462607995650000003596560972264112268_">
			<use xlink:href="#SVGID_00000059306369693054142110000011521307490389827713_"  style="overflow:visible;"/>
		</clipPath>
		<path style="clip-path:url(#SVGID_00000049907590462607995650000003596560972264112268_);fill:#999999;" d="M924,37.4
			c0,0-4.9,11.1-0.9,10c4-1,9.4-8,10.5-10.5L924,37.4z"/>
	</g>
	<g>
		<defs>
			<rect id="SVGID_00000078761983715248579600000001852208347085742233_" width="1456" height="180"/>
		</defs>
		<clipPath id="SVGID_00000015318784409098120710000013072833421040422026_">
			<use xlink:href="#SVGID_00000078761983715248579600000001852208347085742233_"  style="overflow:visible;"/>
		</clipPath>
		<path style="clip-path:url(#SVGID_00000015318784409098120710000013072833421040422026_);fill:#999999;" d="M942.5,37.1
			c0,0-4.9,11.1-0.9,10c4-1,9.5-7.2,10.6-9.7L942.5,37.1z"/>
	</g>
	<g>
		<defs>
			<rect id="SVGID_00000167361979065640533060000013712383448886625158_" width="1456" height="180"/>
		</defs>
		<clipPath id="SVGID_00000111193482492893606410000000888761206239789714_">
			<use xlink:href="#SVGID_00000167361979065640533060000013712383448886625158_"  style="overflow:visible;"/>
		</clipPath>
		
			<path style="clip-path:url(#SVGID_00000111193482492893606410000000888761206239789714_);fill:#FDD4B5;stroke:#999999;stroke-width:3;stroke-linecap:round;stroke-linejoin:round;stroke-miterlimit:10;" d="
			M916.2,71.7c1,4.5,5.8,7.6,10.5,7.4c4.6-0.2,8.8-3.2,11.3-7.1c0.2-0.3,0.3-0.6,0.3-0.9c0-0.9-1.1-1.2-2-1.3
			c-7.2-0.6-14.4-0.5-21.5,0.2"/>
	</g>
	<g>
		<defs>
			<rect id="SVGID_00000124884655956186131740000006698282594409688246_" width="1456" height="180"/>
		</defs>
		<clipPath id="SVGID_00000169546087745577375340000010217406969245121697_">
			<use xlink:href="#SVGID_00000124884655956186131740000006698282594409688246_"  style="overflow:visible;"/>
		</clipPath>
		
			<path style="clip-path:url(#SVGID_00000169546087745577375340000010217406969245121697_);fill:none;stroke:#999999;stroke-width:3;stroke-linecap:round;stroke-miterlimit:10;" d="
			M890.3,58.1c4.8-1.2,9.7-1.9,14.6-2.1"/>
	</g>
	<g>
		<defs>
			<rect id="SVGID_00000036933546640022764380000007719553303240735375_" width="1456" height="180"/>
		</defs>
		<clipPath id="SVGID_00000170248899131815085780000004961907268595816378_">
			<use xlink:href="#SVGID_00000036933546640022764380000007719553303240735375_"  style="overflow:visible;"/>
		</clipPath>
		
			<path style="clip-path:url(#SVGID_00000170248899131815085780000004961907268595816378_);fill:none;stroke:#999999;stroke-width:3;stroke-linecap:round;stroke-miterlimit:10;" d="
			M950.2,57.2c4.7,0.4,9.4,0.9,14.2,1.3"/>
	</g>
</g>
<g class="st11">
	<path class="st12" d="M716.1,138.2c11.9-2.2,27.4-0.3,45.6-8.9c9-4.2,17.3-9.8,22.5-17.1c3.5-4.9,3.4-21.6,3.4-21.6l19.4-13
		l-27.8-7.8c0,0-3.6-31.3-66.7-34.2c-44.1-2.1-88.7-6.8-131.1,3.4c-16.5,3.9-32.8,9.3-45.8,18.4s-22.5,22.3-22.2,36.2
		c0.4,21.4,23.4,39,48.7,45.1l0,0c23,5.6,76.5,4.9,76.5,4.9S708.1,139.6,716.1,138.2z"/>
</g>
<g>
	<g class="st13">
		<path class="st14" d="M578.6,87h8.4l-4,24.2h-10.9L578.6,87z M589.9,76.9c0,1.8-0.6,3.3-1.7,4.4c-1.1,1.1-2.6,1.6-4.6,1.6
			c-1.5,0-2.6-0.3-3.4-1c-0.8-0.7-1.2-1.7-1.2-3c0-1.9,0.5-3.3,1.6-4.3c1.1-1,2.6-1.5,4.4-1.5c1.5,0,2.7,0.3,3.5,1
			C589.5,74.7,589.9,75.6,589.9,76.9z"/>
		<path class="st14" d="M620.6,102.5h-10l3.2-15.3H605l-3.2,15.3h-10l7.9-37.4h10L606.7,79h8.9l2.9-13.9h10L620.6,102.5z"/>
		<path class="st14" d="M641.6,103c-3.6,0-6.3-1-8.3-2.9c-1.9-1.9-2.9-4.7-2.9-8.3c0-3.6,0.7-6.8,2-9.7c1.4-2.9,3.3-5.1,5.7-6.7
			c2.5-1.6,5.3-2.4,8.6-2.4c3.6,0,6.3,1,8.3,2.9c1.9,1.9,2.9,4.7,2.9,8.3c0,3.6-0.7,6.8-2,9.7s-3.3,5.1-5.7,6.7
			C647.7,102.2,644.9,103,641.6,103z M645.6,80.5c-1.4,0-2.6,1.2-3.6,3.6c-1,2.4-1.5,5.1-1.5,8.2c0,2.3,0.7,3.4,2.1,3.4
			c1.4,0,2.6-1.2,3.6-3.6c1-2.4,1.5-5.1,1.5-8.2c0-1.1-0.2-2-0.6-2.5C646.8,80.7,646.3,80.5,645.6,80.5z"/>
		<path class="st14" d="M670.6,102.5h-9.9l8.4-39.8h9.9L670.6,102.5z"/>
		<path class="st14" d="M702.2,102.5h-7.9l0.3-3.1h-0.2c-1,1.3-2,2.3-3.1,2.8c-1.1,0.6-2.4,0.8-3.8,0.8c-2.7,0-4.7-1-6.1-2.9
			s-2.1-4.6-2.1-8.2c0-3.1,0.6-6.2,1.9-9.3s2.8-5.6,4.7-7.2c1.9-1.6,4-2.4,6.3-2.4c1.4,0,2.7,0.3,3.8,1c1.1,0.6,2.1,1.7,2.9,3.1h0.2
			l1.4-3.6h7.9L702.2,102.5z M691.6,95.1c0.9,0,1.7-0.5,2.4-1.5c0.8-1,1.4-2.3,1.9-4s0.7-3.3,0.7-4.9c0-1.1-0.2-2-0.5-2.7
			c-0.3-0.7-0.9-1-1.6-1c-1.3,0-2.5,1.1-3.5,3.2c-1,2.2-1.6,4.6-1.6,7.2C689.4,93.8,690.1,95.1,691.6,95.1z"/>
		<path class="st14" d="M709.3,99.3c0-1.8,0.6-3.3,1.7-4.4c1.1-1.1,2.6-1.6,4.6-1.6c1.5,0,2.6,0.3,3.4,1c0.8,0.7,1.2,1.7,1.2,2.9
			c0,1.9-0.5,3.3-1.6,4.4c-1.1,1-2.6,1.5-4.4,1.5c-1.5,0-2.7-0.3-3.5-1C709.7,101.5,709.3,100.5,709.3,99.3z M720.5,89.3h-8.4
			l4-24.2H727L720.5,89.3z"/>
	</g>
</g>
</svg>
